<?xml version="1.0" encoding="UTF-8"?>
<svg width="2794px" height="4005px" viewBox="0 0 2794 4005" version="1.1" xmlns="http://www.w3.org/2000/svg" xmlns:xlink="http://www.w3.org/1999/xlink">
    <!-- Generator: Sketch 63.1 (92452) - https://sketch.com -->
    <title>Group 2</title>
    <desc>Created with Sketch.</desc>
    <defs>
        <linearGradient x1="24.6103532%" y1="50.7450632%" x2="92.0696111%" y2="49.8553325%" id="linearGradient-1">
            <stop stop-color="#0091FF" offset="0%"></stop>
            <stop stop-color="#00FFE9" stop-opacity="0.603720498" offset="100%"></stop>
        </linearGradient>
        <linearGradient x1="56.2159901%" y1="11.7779868%" x2="44.861989%" y2="78.4514328%" id="linearGradient-2">
            <stop stop-color="#C7069D" offset="0%"></stop>
            <stop stop-color="#0091FF" offset="100%"></stop>
        </linearGradient>
        <linearGradient x1="73.2778433%" y1="46.4813459%" x2="30.759008%" y2="52.6191909%" id="linearGradient-3">
            <stop stop-color="#C7069D" offset="0%"></stop>
            <stop stop-color="#0091FF" offset="100%"></stop>
        </linearGradient>
    </defs>
    <g id="Page-1" stroke="none" stroke-width="1" fill="none" fill-rule="evenodd" stroke-opacity="0.85">
        <g id="Group" transform="translate(-25.096848, 6.461210)" stroke="#000000" stroke-width="10">
            <g id="Group-2">
                <polygon id="Path-2" fill="url(#linearGradient-1)" transform="translate(1231.500000, 2889.834313) scale(1, -1) rotate(-137.000000) translate(-1231.500000, -2889.834313) " points="-48.9573371 2712.16663 2621.34109 2621.33431 2664 3059.77839 -201 3158.33431"></polygon>
                <path d="M1855.45092,533.53879 C1811.1043,679.238458 1778.60626,786.347038 1757.95678,854.86453 C1485.8618,1757.70914 1349.09685,2213.68388 1349.09685,2213.68388 C1349.09685,2213.68388 1482.66721,2290.30218 1749.80793,2443.53879 L2336.09685,533.53879 L1855.45092,533.53879 Z" id="Path" fill="url(#linearGradient-2)" transform="translate(1842.596848, 1488.538790) scale(1, -1) rotate(-169.000000) translate(-1842.596848, -1488.538790) "></path>
                <path d="M1105.37616,195 C2083.91448,195 2620.55745,195 2715.30507,195 C2810.05269,195 2794.55448,364 2668.81045,702 L1105.37616,702 L1105.37616,195 Z" id="Rectangle" fill="url(#linearGradient-3)" transform="translate(1940.876165, 448.500000) scale(1, -1) rotate(-166.000000) translate(-1940.876165, -448.500000) "></path>
            </g>
        </g>
    </g>
</svg>